<?xml version="1.0" encoding="utf-8"?>
<!-- Generator: Adobe Illustrator 16.0.4, SVG Export Plug-In . SVG Version: 6.00 Build 0)  -->
<!DOCTYPE svg PUBLIC "-//W3C//DTD SVG 1.1//EN" "http://www.w3.org/Graphics/SVG/1.1/DTD/svg11.dtd">
<svg version="1.1" id="Ebene_1" xmlns="http://www.w3.org/2000/svg" xmlns:xlink="http://www.w3.org/1999/xlink" x="0px" y="0px"
	 width="100px" height="163.531px" viewBox="0 0 100 163.531" enable-background="new 0 0 100 163.531" xml:space="preserve">
<g>
	<path fill="#9D9D9C" d="M12.55,91.347c0,9.286,74.9,13.503,74.9,22.877v12.806c0-9.37-74.9-11.229-74.9-20.515V91.347z"/>
	<path fill="#9D9D9C" d="M0,50.958c0,9.291,100,13.68,100,23.049v16.344c0-9.37-100-12.587-100-21.873V50.958z"/>
	<g>
		<g>
			<rect x="45.099" fill="#389D7C" width="14.284" height="163.531"/>
		</g>
	</g>
	<path fill="#878787" d="M25.707,141.472c0-9.281,61.748-5.078,61.748-14.457v-12.81c0,9.369-61.748,12.22-61.748,21.51V141.472z"/>
	<path fill="#878787" d="M12.55,106.31c0-9.291,87.45-6.417,87.45-15.782V74.179c0,9.37-87.45,7.67-87.45,16.963V106.31z"/>
	<path fill="#878787" d="M65.879,26.311C43.634,33.64,0,43.402,0,50.744v17.521c0-9.228,76.979-18.606,77.918-27.925L65.879,26.311z
		"/>
	<path fill="#FFFFFF" d="M68.134,39.387c0,1.132-0.916,2.058-2.055,2.058c-1.134,0-2.055-0.925-2.055-2.058
		c0-1.137,0.921-2.062,2.055-2.062C67.218,37.325,68.134,38.25,68.134,39.387"/>
</g>
</svg>
