<?xml version="1.0" encoding="iso-8859-1"?>
<!-- Generator: Adobe Illustrator 16.0.0, SVG Export Plug-In . SVG Version: 6.00 Build 0)  -->
<!DOCTYPE svg PUBLIC "-//W3C//DTD SVG 1.1//EN" "http://www.w3.org/Graphics/SVG/1.1/DTD/svg11.dtd">
<svg version="1.1" id="Capa_1" xmlns="http://www.w3.org/2000/svg" xmlns:xlink="http://www.w3.org/1999/xlink" x="0px" y="0px"
	 width="31.125px" height="31.125px" viewBox="0 0 31.125 31.125" style="fill: #389D7D; enable-background:new 0 0 31.125 31.125;"
	 xml:space="preserve">
<g>
	<g>
		<path d="M10.171,11.564c-0.144,0.298-0.163,0.642-0.054,0.955s0.34,0.569,0.639,0.713l1.11,0.532
			c0.619,0.297,1.363,0.038,1.663-0.581l0.111-0.229l0.14,0.066c0.619,0.297,1.362,0.036,1.662-0.582l1.668-3.447
			c0.914,0.512,1.871,1.208,2.551,2.123c0.94-0.857,2.188-1.377,3.56-1.377c0.138,0,0.271,0.007,0.403,0.017
			c-1.143-2.087-3.051-3.504-4.745-4.417l0.739-1.53c0.145-0.299,0.164-0.644,0.056-0.956c-0.108-0.313-0.339-0.57-0.64-0.714
			l-0.131-0.063c0.094-0.195,0.106-0.419,0.035-0.623c-0.07-0.204-0.221-0.371-0.414-0.465L16.633,0.08
			c-0.406-0.194-0.894-0.024-1.089,0.382l-0.142-0.068c-0.62-0.297-1.363-0.036-1.663,0.582L9.564,9.61
			C9.42,9.909,9.4,10.253,9.509,10.565c0.11,0.313,0.34,0.57,0.639,0.714l0.131,0.062L10.171,11.564z"/>
		<path d="M19.669,18.9c-0.215,0.391-0.467,0.77-0.778,1.119c-0.758,0.848-1.771,1.443-3.05,1.785v-1.226h1.038v-1.104
			c0-0.449-0.364-0.812-0.813-0.812H7.304c-0.449,0-0.812,0.363-0.812,0.812v1.104h1.799h0.038v6.363
			c-0.013,0.006-0.025,0.011-0.038,0.017c-1.999,0.803-3.648,2.25-4.659,4.166h16.134c-0.887-1.677-2.262-2.988-3.93-3.834
			c-0.038-0.021-0.077-0.037-0.115-0.058c0.041,0.021,0.08,0.036,0.12,0.058v-1.33c2.479-0.453,4.552-1.537,6.074-3.244
			c0.688-0.772,1.209-1.609,1.603-2.455c-0.098,0.006-0.196,0.008-0.296,0.008C21.854,20.27,20.606,19.75,19.669,18.9z"/>
		<path d="M23.22,10.75c-2.354,0-4.271,1.908-4.271,4.254c0,2.345,1.918,4.251,4.271,4.251c2.357,0,4.273-1.906,4.273-4.251
			C27.493,12.658,25.579,10.75,23.22,10.75z"/>
	</g>
</g>
</svg>
